<svg version="1.1" id="Layer_1" xmlns="http://www.w3.org/2000/svg" xmlns:xlink="http://www.w3.org/1999/xlink" x="0px" y="0px"
	 width="100%" viewBox="0 0 272 288" enable-background="new 0 0 272 288" xml:space="preserve">
<path fill="#00000" opacity="1.000000" stroke="none" 
	d="
M32.231842,166.567810 
	C22.093475,138.559692 22.724394,111.208382 33.800697,83.918022 
	C49.542480,45.132610 90.057434,17.837126 132.128708,16.493031 
	C178.133469,15.023267 221.865555,42.658558 238.560699,85.930092 
	C253.939240,125.789146 248.235352,163.248169 221.816971,196.879959 
	C203.603256,220.066864 179.100357,233.061508 149.963745,237.008499 
	C142.939484,237.960052 135.789993,239.062088 128.582504,237.609360 
	C124.883179,236.863739 119.679359,243.135605 120.258888,247.548233 
	C121.421814,256.403168 116.976883,263.868347 114.266479,271.700256 
	C112.961548,275.471008 109.037735,277.302246 105.277336,278.291077 
	C93.500328,281.387848 81.604805,282.194275 69.805077,278.531311 
	C51.704388,272.912323 40.935314,257.540527 39.676521,236.861008 
	C38.886955,223.890015 40.875622,211.926926 49.748241,201.891724 
	C51.779469,199.594345 50.612984,198.141235 49.191216,196.318039 
	C42.183109,187.331146 36.504196,177.570297 32.231842,166.567810 
M65.117783,54.616047 
	C42.161121,77.970810 31.762747,105.768547 35.225021,138.560501 
	C37.238010,157.625946 44.306377,174.540024 56.044552,189.636887 
	C58.081375,192.256516 59.663094,192.853180 62.586952,190.929321 
	C67.603645,187.628403 73.071793,185.117630 78.812347,183.276215 
	C87.903252,180.360092 96.490898,176.539200 104.218987,170.751053 
	C109.932014,166.472153 118.068306,167.366882 123.015877,172.186264 
	C128.344696,177.377014 129.263718,185.093887 125.213356,191.347122 
	C123.803421,193.523895 122.203842,195.577820 120.790123,197.549438 
	C121.620331,198.757858 122.488602,198.629211 123.288162,198.531876 
	C132.527618,197.406952 141.777084,196.352676 150.998093,195.091064 
	C160.027664,193.855652 165.901581,197.346329 167.677902,205.276016 
	C169.192535,212.037476 164.916580,217.891754 156.635666,220.464279 
	C148.957352,222.849594 141.292084,225.276810 132.299210,228.100632 
	C170.678802,230.364410 214.201935,207.444305 231.346161,161.698563 
	C247.344635,119.009972 230.752960,68.227211 192.600204,43.148201 
	C152.107208,16.530872 99.853584,21.049040 65.117783,54.616047 
M102.596092,217.372894 
	C97.961929,220.382645 95.465103,219.646744 94.334267,214.580643 
	C93.287468,209.891037 92.636490,205.110428 91.889267,200.357605 
	C91.434059,197.462250 92.056557,194.903854 95.195183,193.947220 
	C98.145561,193.047928 99.919266,194.716064 101.034538,197.277481 
	C101.358543,198.021652 101.464378,198.917221 103.113190,199.217148 
	C108.301872,196.075317 113.365540,192.171677 117.029182,186.619156 
	C118.845291,183.866730 118.775093,181.286301 116.303459,179.029007 
	C114.001091,176.926331 111.451981,176.946915 109.038277,178.823013 
	C100.484299,185.471634 90.489876,188.978592 80.472900,192.721176 
	C61.773727,199.707672 46.205856,211.504211 49.325203,237.572998 
	C50.979435,251.397659 55.894951,262.940796 69.939499,268.606506 
	C80.838638,273.003326 91.746895,272.087128 102.689674,269.169312 
	C105.131477,268.518250 107.121162,266.964142 106.923439,263.640747 
	C105.408318,263.545410 104.105186,263.377472 102.805222,263.399231 
	C99.938087,263.447052 97.806023,262.421509 97.480286,259.366272 
	C97.152901,256.295471 99.159256,254.785614 101.857941,254.252548 
	C103.801460,253.868607 105.818756,253.838608 107.806808,253.705597 
	C109.487335,253.593155 110.797607,253.066315 110.741928,251.103241 
	C110.689484,249.254242 109.497360,248.500092 107.789009,248.412857 
	C106.791931,248.361938 105.790009,248.319962 104.793549,248.358673 
	C101.468773,248.487778 99.043419,247.150757 99.026222,243.662994 
	C99.008301,240.029037 101.894554,239.152451 104.920708,238.940460 
	C107.073044,238.789688 109.270645,239.021729 111.386879,238.691269 
	C113.616859,238.343018 114.944237,236.786179 114.659081,234.429977 
	C114.375397,232.085907 112.408295,232.354553 110.773903,232.378647 
	C109.449005,232.398178 108.125725,232.597656 106.803841,232.737320 
	C103.563599,233.079666 100.971146,232.002274 100.501991,228.604065 
	C99.995369,224.934525 102.498093,223.816650 105.759781,223.562317 
	C113.543121,222.955322 121.287170,222.269012 128.715286,219.406128 
	C133.823761,217.437241 139.191788,216.146423 144.429214,214.505966 
	C148.080124,213.362457 151.721863,212.185043 155.337006,210.934021 
	C157.152359,210.305832 158.837189,209.237915 158.360809,207.002396 
	C157.913086,204.901352 156.114746,204.221420 154.122070,204.310165 
	C152.135254,204.398636 150.149475,204.597595 148.173813,204.835724 
	C135.970398,206.306641 123.787437,207.972275 111.562157,209.227112 
	C104.009415,210.002335 103.981171,209.727158 102.596092,217.372894 
z"/>
<path fill="#000000" opacity="1.000000" stroke="none" 
	d="
M167.108154,157.692322 
	C173.585556,160.578568 179.198547,164.084579 183.987793,168.829132 
	C186.225464,171.045929 187.429611,173.600174 185.117935,176.296585 
	C182.681442,179.138565 180.217789,178.010712 177.840118,175.793015 
	C165.296677,164.093536 150.474899,160.835388 133.924255,164.075043 
	C130.857620,164.675308 128.031342,164.301620 127.264748,160.701004 
	C126.495140,157.086227 128.952591,155.539429 131.993408,154.938461 
	C143.807373,152.603638 155.448975,152.885651 167.108154,157.692322 
z"/>
<path fill="#000000" opacity="1.000000" stroke="none" 
	d="
M180.372162,91.927208 
	C187.592361,89.708260 193.345596,91.348854 196.627045,96.305893 
	C200.196716,101.698318 199.834427,107.977325 195.671341,112.869484 
	C192.118546,117.044472 185.423080,118.429413 180.178253,115.962921 
	C175.376114,113.704590 172.924744,109.761948 172.708801,104.536430 
	C172.475479,98.890450 174.747757,94.577644 180.372162,91.927208 
z"/>
<path fill="#000000" opacity="1.000000" stroke="none" 
	d="
M95.352524,113.331131 
	C90.016731,117.664925 84.576714,118.631004 78.892418,115.119179 
	C74.401016,112.344322 72.318581,108.034309 72.777222,102.817101 
	C73.233109,97.631088 75.857780,93.732323 80.860298,91.746971 
	C86.217667,89.620804 91.148186,90.605919 95.163773,94.564804 
	C98.834793,98.184021 100.268860,102.655930 98.484871,107.840012 
	C97.820961,109.769241 96.866760,111.479683 95.352524,113.331131 
z"/>
<path fill="#000000" opacity="1.000000" stroke="none" 
	d="
M196.677689,84.492996 
	C189.203217,78.859436 181.522018,74.786446 172.160126,75.356575 
	C169.857681,75.496803 167.584732,76.070480 165.287354,76.358292 
	C162.713654,76.680725 160.522446,75.999840 159.875748,73.207016 
	C159.227905,70.409355 160.338943,68.509850 163.169907,67.387955 
	C173.805756,63.173012 194.398666,68.281433 201.499069,77.057526 
	C202.691879,78.531837 203.478180,80.242149 202.379639,82.103020 
	C201.195923,84.108162 199.535660,85.342720 196.677689,84.492996 
z"/>
<path fill="#000000" opacity="1.000000" stroke="none" 
	d="
M70.228897,67.478333 
	C77.197639,54.723499 88.420219,50.265678 101.794220,49.720970 
	C104.684624,49.603245 106.747543,50.976486 107.004700,53.897717 
	C107.248184,56.663486 105.197479,58.150288 102.787781,58.659748 
	C98.910439,59.479492 94.935371,59.709103 91.147621,61.114120 
	C85.626236,63.162201 81.177490,66.396515 78.564369,71.752846 
	C77.082336,74.790703 75.425369,77.835808 71.545074,75.981682 
	C67.866455,74.223915 68.515556,70.924538 70.228897,67.478333 
z"/>
</svg>